<?xml version="1.0" encoding="utf-8"?>
<!-- Svg Vector Icons : http://www.onlinewebfonts.com/icon -->
<!DOCTYPE svg PUBLIC "-//W3C//DTD SVG 1.1//EN" "http://www.w3.org/Graphics/SVG/1.1/DTD/svg11.dtd">
<svg version="1.1" xmlns="http://www.w3.org/2000/svg" xmlns:xlink="http://www.w3.org/1999/xlink" x="0px" y="0px" viewBox="0 0 256 256" enable-background="new 0 0 256 256" xml:space="preserve">
<metadata> Svg Vector Icons : http://www.onlinewebfonts.com/icon </metadata>
<g><g><path fill="#000000" d="M51.6,111.4c-2.9,0-4.4,1.4-4.4,4.4v7.2c0,2.9,1.4,4.4,4.4,4.4h53.1c2.9,0,4.4-1.4,4.4-4.4v-7.2c0-2.9-1.4-4.4-4.4-4.4H51.6z M51.6,89.2c-2.9,0-4.4,1.4-4.4,4.4v7.2c0,3,1.4,4.5,4.4,4.5h53.1c2.9,0,4.4-1.5,4.4-4.5v-7.2c0-2.9-1.4-4.4-4.4-4.4H51.6z M51.6,133.5c-2.9,0-4.4,1.4-4.4,4.4v7.2c0,2.9,1.4,4.4,4.4,4.4h53.1c2.9,0,4.4-1.4,4.4-4.4v-7.2c0-2.9-1.4-4.4-4.4-4.4H51.6L51.6,133.5z M36.5,160.6c-2.9,0-4.4-1.5-4.4-4.5V80.8c0-3,1.4-4.5,4.4-4.5h129c28.1,0,42.2,14.1,42.2,42.2c0,28.1-14.1,42.2-42.2,42.2L36.5,160.6L36.5,160.6z M221.7,31.4v16.9H32.1C17.4,48.3,10,55.7,10,70.4v92.4c0,14.7,7.4,22.1,22.1,22.1L32,196c0,2.9,1.5,4.4,4.5,4.4h34c3,0,4.5-1.4,4.5-4.4v-11.1h15.7V196c0,2.9,1.5,4.4,4.5,4.4h83.5c2.9,0,4.4-1.4,4.4-4.4v-11.1h38.6v39.7c0,8.1,4,12.1,12.1,12.1c8.1,0,12.1-4,12.1-12.1V31.4c0-8.1-4-12.1-12.1-12.1S221.7,23.3,221.7,31.4L221.7,31.4z M152.2,118.5c0-8.7,4.4-13.1,13.2-13.1c8.7,0,13.1,4.4,13.1,13.1c0,8.8-4.4,13.2-13.1,13.2C156.6,131.7,152.2,127.3,152.2,118.5L152.2,118.5z M136.3,118.5c0,19.5,9.7,29.2,29.2,29.2s29.2-9.7,29.2-29.2c0-19.5-9.7-29.2-29.2-29.2S136.3,99,136.3,118.5L136.3,118.5z"/></g></g>
</svg>