<?xml version="1.0" encoding="utf-8"?>
<!-- Svg Vector Icons : http://www.onlinewebfonts.com/icon -->
<!DOCTYPE svg PUBLIC "-//W3C//DTD SVG 1.1//EN" "http://www.w3.org/Graphics/SVG/1.1/DTD/svg11.dtd">
<svg version="1.1" xmlns="http://www.w3.org/2000/svg" xmlns:xlink="http://www.w3.org/1999/xlink" x="0px" y="0px" viewBox="0 0 256 256" enable-background="new 0 0 256 256" xml:space="preserve">
<metadata> Svg Vector Icons : http://www.onlinewebfonts.com/icon </metadata>
<g><g><g><path fill="#000000" d="M13.1,61.5c-0.6,0.2-1.5,1-2.1,1.7l-1,1.3v48c0,53.3-0.2,49.5,3.2,50.9c2.4,1,227.2,1,229.6,0c3.4-1.4,3.2,2.4,3.2-51V64.4l-1.4-1.5l-1.4-1.6l-114.6-0.1C65.6,61.1,13.6,61.2,13.1,61.5z M68.8,82.5c2.8,1.4,2.8,1.5,2.8,30.1c0,28.6,0,28.6-2.8,30.1c-2.2,1.2-33.6,1.2-35.7,0c-2.8-1.4-2.8-1.5-2.8-30c0-18.1,0.1-26.4,0.5-27.5c0.3-0.9,1.3-2,2.1-2.5c1.4-0.9,2.6-0.9,18-0.9C64.9,81.7,67.6,81.8,68.8,82.5z M120.2,82.4c0.7,0.4,1.5,1.3,1.9,2c0.8,1.7,0.8,54.6,0,56.3c-1.2,2.6-1.7,2.7-20.2,2.7H85l-1.6-1.6l-1.6-1.6v-27.5V85l1.6-1.6l1.6-1.6h16.9C115.7,81.7,119.1,81.8,120.2,82.4z M172.4,83.1l1.6,1.4v28v28l-1.3,1.3l-1.3,1.3l-17,0.1c-12.2,0.1-17.3,0-18.3-0.4c-2.8-1.2-2.8-0.7-2.8-30.6c0-25.2,0.1-27.5,0.9-28.4c1.6-2,2.1-2.1,19.7-2.1h17L172.4,83.1z M222.9,82.5c2.8,1.4,2.8,1.5,2.8,30.1c0,28.6,0,28.6-2.8,30.1c-2.2,1.2-33.6,1.2-35.7,0c-2.8-1.4-2.8-1.5-2.8-30c0-18.1,0.1-26.4,0.5-27.5c0.3-0.9,1.3-2,2.1-2.5c1.4-0.9,2.6-0.9,18-0.9C219,81.7,221.7,81.8,222.9,82.5z"/><path fill="#000000" d="M40.8,112.5v20.7h10.1h10.1v-20.7V91.8H50.9H40.8V112.5L40.8,112.5z"/><path fill="#000000" d="M92.1,92.4C92,92.7,91.9,102,92,113l0.1,20l10.3,0.1l10.2,0.1v-20.7V91.8h-10.1C94.8,91.8,92.3,92,92.1,92.4z"/><path fill="#000000" d="M143.4,112.5v20.7l10.3-0.1l10.2-0.1v-20.5V92.1l-10.2-0.1l-10.3-0.1V112.5z"/><path fill="#000000" d="M194.9,112.5v20.7h10.1h10.1v-20.7V91.8h-10.1h-10.1V112.5L194.9,112.5z"/><path fill="#000000" d="M20.1,182.5c0,12.4,0.2,12.6,13,12.3l7.5-0.1l0.1-10.3l0.1-10.2H30.5H20.1V182.5z"/><path fill="#000000" d="M50.9,184.5v10.4H56h5.1v-10.4v-10.4H56h-5.1V184.5L50.9,184.5z"/><path fill="#000000" d="M71.7,184.5v10.4h5.1h5.1v-10.4v-10.4h-5.1h-5.1V184.5z"/><path fill="#000000" d="M92,184.4l0.1,10.3h5.1h5.1l0.1-10.3l0.1-10.2h-5.3h-5.3L92,184.4z"/><path fill="#000000" d="M112.6,184.5v10.4h5.1h5.1v-10.4v-10.4h-5.1h-5.1V184.5z"/><path fill="#000000" d="M133.3,184.5v10.4h5.1h5.1v-10.4v-10.4h-5.1h-5.1V184.5z"/><path fill="#000000" d="M153.6,184.4l0.1,10.3h5.1h5.1l0.1-10.3l0.1-10.2h-5.3h-5.3L153.6,184.4z"/><path fill="#000000" d="M174.2,184.5v10.4h5.1h5.1v-10.4v-10.4h-5.1h-5.1V184.5z"/><path fill="#000000" d="M194.9,184.5v10.4h5.1h5.1v-10.4v-10.4H200h-5.1V184.5L194.9,184.5z"/><path fill="#000000" d="M215.3,184.4l0.1,10.3l7.5,0.1c12.8,0.2,13,0,13-12.3v-8.3h-10.4h-10.4L215.3,184.4z"/></g></g></g>
</svg>