<?xml version="1.0" encoding="utf-8"?>
<!-- Svg Vector Icons : http://www.onlinewebfonts.com/icon -->
<!DOCTYPE svg PUBLIC "-//W3C//DTD SVG 1.1//EN" "http://www.w3.org/Graphics/SVG/1.1/DTD/svg11.dtd">
<svg version="1.1" xmlns="http://www.w3.org/2000/svg" xmlns:xlink="http://www.w3.org/1999/xlink" x="0px" y="0px" viewBox="0 0 256 256" enable-background="new 0 0 256 256" xml:space="preserve">
<metadata> Svg Vector Icons : http://www.onlinewebfonts.com/icon </metadata>
<g><g><path fill="#000000" d="M108.3,29.7H88.7V10h19.7V29.7L108.3,29.7z M29.7,147.7H10v19.7h19.7V147.7z M29.7,118.2H10v19.7h19.7V118.2z M29.7,88.7H10v19.7h19.7V88.7z M29.7,39.5c0-5.4,4.4-9.8,9.8-9.8h39.3V10H39.5C23.2,10,10,23.2,10,39.5v39.3h19.7V39.5z M137.8,10h-19.7v19.7h19.7V10z M167.3,10h-19.7v19.7h19.7V10z M134.6,124.2c0-3.2-2.1-3.9-5.3-3.9h-4.6v7.8h4.6C132.5,128,134.6,127.4,134.6,124.2z M49.3,49.3h157.3v157.3H49.3V49.3z M148.1,133.9c0,9.3,5.4,13.8,14.6,13.8c9,0,14.7-4.5,14.7-13.8v-20.9h-8.9v20.9c0,4.7-1.6,6.1-5.7,6.1c-4.4,0-5.7-2.1-5.7-6.1v-20.9h-8.9L148.1,133.9L148.1,133.9z M115.8,147h8.9v-11.5h6.5c7.8,0,12-4.7,12-11.2c0-6.7-4.4-11.2-12-11.2h-15.4L115.8,147L115.8,147z M79,130.1c0,9.9,6.4,17.6,16.7,17.6c8.1,0,14.2-4.7,15.1-15h-8.7c-1.4,10.8-14.3,9.5-14.3-2.6c0-5.5,2.2-10.1,7.8-10.1c3,0,5.7,1.8,6.2,5.6h8.7c-0.9-9.1-7.2-13.4-14.9-13.4C85.4,112.2,79,119.9,79,130.1z M226.3,137.8H246v-19.7h-19.7V137.8L226.3,137.8z M29.7,216.5v-39.3H10v39.3c0,16.3,13.2,29.5,29.5,29.5h39.3v-19.7H39.5C34.1,226.3,29.7,221.9,29.7,216.5z M226.3,216.5c0,5.4-4.4,9.8-9.8,9.8h-39.3V246h39.3c16.3,0,29.5-13.2,29.5-29.5v-39.3h-19.7V216.5L226.3,216.5z M226.3,167.3H246v-19.7h-19.7V167.3L226.3,167.3z M226.3,108.3H246V88.7h-19.7V108.3L226.3,108.3z M216.5,10h-39.3v19.7h39.3c5.4,0,9.8,4.4,9.8,9.8v39.3H246V39.5C246,23.2,232.8,10,216.5,10z M88.7,246h19.7v-19.7H88.7V246L88.7,246z M147.7,246h19.7v-19.7h-19.7V246z M118.2,246h19.7v-19.7h-19.7V246L118.2,246z"/></g></g>
</svg>