<?xml version="1.0" encoding="utf-8"?><svg version="1.1" id="Layer_1" xmlns="http://www.w3.org/2000/svg" xmlns:xlink="http://www.w3.org/1999/xlink" x="0px" y="0px" viewBox="0 0 98.96 122.88" style="enable-background:new 0 0 98.96 122.88" xml:space="preserve"><g><path d="M5.44,0h88.09c1.49,0,2.85,0.61,3.83,1.59l0.01,0.01c0.98,0.98,1.59,2.34,1.59,3.83v89.92v22.09 c0,1.49-0.61,2.85-1.59,3.83l-0.01,0.01c-0.98,0.98-2.34,1.59-3.83,1.59H5.44c-1.5,0-2.86-0.61-3.84-1.59 C0.61,120.3,0,118.94,0,117.44V95.36V5.44c0-1.49,0.61-2.85,1.59-3.83l0.01-0.01C2.59,0.61,3.95,0,5.44,0L5.44,0z M64.96,21.3h6.63 c4.28,0,7.17,0.19,8.68,0.59c1.51,0.4,2.66,1.04,3.44,1.94c0.78,0.9,1.28,1.9,1.47,3c0.19,1.11,0.29,3.27,0.29,6.5v11.94 c0,3.06-0.14,5.11-0.43,6.14c-0.29,1.03-0.79,1.85-1.5,2.43c-0.72,0.58-1.6,0.98-2.66,1.22c-1.05,0.23-2.64,0.35-4.76,0.35H64.96 V21.3L64.96,21.3z M73.84,27.12v22.46c1.26,0,2.03-0.26,2.32-0.77c0.29-0.52,0.44-1.91,0.44-4.19V31.36c0-1.54-0.05-2.54-0.14-2.97 c-0.1-0.44-0.32-0.75-0.67-0.96C75.45,27.22,74.8,27.12,73.84,27.12L73.84,27.12z M41.14,21.3h6.63c4.28,0,7.17,0.19,8.68,0.59 c1.51,0.4,2.66,1.04,3.44,1.94c0.78,0.9,1.28,1.9,1.47,3c0.19,1.11,0.29,3.27,0.29,6.5v11.94c0,3.06-0.14,5.11-0.43,6.14 c-0.29,1.03-0.79,1.85-1.5,2.43c-0.72,0.58-1.6,0.98-2.66,1.22c-1.05,0.23-2.64,0.35-4.76,0.35H41.14V21.3L41.14,21.3z M50.02,27.12v22.46c1.26,0,2.03-0.26,2.32-0.77c0.29-0.52,0.44-1.91,0.44-4.19V31.36c0-1.54-0.05-2.54-0.14-2.97 c-0.1-0.44-0.32-0.75-0.67-0.96C51.62,27.22,50.97,27.12,50.02,27.12L50.02,27.12z M37.55,21.3v34.1h-8.88V41.09h-2.59V55.4H17.2 V21.3h8.88v12.2h2.59V21.3H37.55L37.55,21.3z M74.51,104.48h11.45c0.58,0,1.05,0.48,1.05,1.05v4.03c0,0.57-0.48,1.05-1.05,1.05 H74.51c-0.57,0-1.05-0.47-1.05-1.05v-4.03C73.46,104.95,73.93,104.48,74.51,104.48L74.51,104.48z M5.62,92.55h87.72V5.62H5.62 V92.55L5.62,92.55z M93.34,98.17H5.62v19.09h87.72V98.17L93.34,98.17z"/></g></svg>