<?xml version="1.0" encoding="utf-8"?><svg version="1.1" id="Layer_1" xmlns="http://www.w3.org/2000/svg" xmlns:xlink="http://www.w3.org/1999/xlink" x="0px" y="0px" viewBox="0 0 61.92 122.88" style="enable-background:new 0 0 61.92 122.88" xml:space="preserve"><style type="text/css">.st0{fill-rule:evenodd;clip-rule:evenodd;}</style><g><path class="st0" d="M6.67,0h48.59c3.67,0,6.67,3,6.67,6.67v109.54c0,3.67-3,6.67-6.67,6.67l-48.59,0c-3.67,0-6.67-3-6.67-6.67 V6.67C0,3,3,0,6.67,0L6.67,0z M47.36,27.61h4.84v2.76h-4.84V27.61L47.36,27.61z M30.96,95.27c4,0,7.25,3.25,7.25,7.25 c0,4-3.25,7.25-7.25,7.25c-4,0-7.25-3.25-7.25-7.25C23.72,98.52,26.96,95.27,30.96,95.27L30.96,95.27z M9.03,21.29H52.9 c0.77,0,1.39,0.63,1.39,1.39v7.54c0,0.76-0.63,1.39-1.39,1.39H9.03c-0.77,0-1.39-0.63-1.39-1.39v-7.54 C7.64,21.92,8.26,21.29,9.03,21.29L9.03,21.29z"/></g></svg>